<svg xmlns="http://www.w3.org/2000/svg" xmlns:xlink="http://www.w3.org/1999/xlink" width="147" zoomAndPan="magnify" viewBox="0 0 110.25 172.499994" height="230" preserveAspectRatio="xMidYMid meet" version="1.0"><defs><g/></defs><g fill="#004aad" fill-opacity="1"><g transform="translate(23.366178, 87.744039)"><g><path d="M 2.15625 0 L 2.15625 -0.640625 C 2.25 -0.640625 2.390625 -0.710938 2.578125 -0.859375 C 2.773438 -1.003906 2.957031 -1.269531 3.125 -1.65625 C 3.289062 -2.039062 3.445312 -2.601562 3.59375 -3.34375 C 3.738281 -4.082031 3.8125 -5.03125 3.8125 -6.1875 L 3.8125 -44.28125 C 3.8125 -45.476562 3.738281 -46.4375 3.59375 -47.15625 C 3.445312 -47.875 3.289062 -48.425781 3.125 -48.8125 C 2.957031 -49.195312 2.773438 -49.457031 2.578125 -49.59375 C 2.390625 -49.738281 2.25 -49.8125 2.15625 -49.8125 L 2.15625 -50.46875 L 2.796875 -50.46875 C 4.953125 -50.519531 7.191406 -50.664062 9.515625 -50.90625 C 11.847656 -51.144531 14.046875 -51.265625 16.109375 -51.265625 C 19.742188 -51.265625 22.804688 -50.960938 25.296875 -50.359375 C 27.796875 -49.753906 29.8125 -48.925781 31.34375 -47.875 C 32.875 -46.820312 33.972656 -45.5625 34.640625 -44.09375 C 35.316406 -42.632812 35.65625 -41.046875 35.65625 -39.328125 C 35.65625 -37.835938 35.414062 -36.457031 34.9375 -35.1875 C 34.457031 -33.914062 33.675781 -32.773438 32.59375 -31.765625 C 31.519531 -30.765625 30.109375 -29.914062 28.359375 -29.21875 C 26.609375 -28.53125 24.460938 -28.039062 21.921875 -27.75 C 24.460938 -27.457031 26.832031 -26.960938 29.03125 -26.265625 C 31.238281 -25.578125 33.144531 -24.65625 34.75 -23.5 C 36.363281 -22.351562 37.632812 -20.988281 38.5625 -19.40625 C 39.5 -17.820312 39.96875 -16.003906 39.96875 -13.953125 C 39.96875 -11.117188 39.320312 -8.800781 38.03125 -7 C 36.738281 -5.207031 35 -3.796875 32.8125 -2.765625 C 30.632812 -1.734375 28.109375 -1.015625 25.234375 -0.609375 C 22.359375 -0.203125 19.316406 0 16.109375 0 Z M 34.859375 -13.953125 C 34.859375 -16.109375 34.453125 -17.941406 33.640625 -19.453125 C 32.828125 -20.960938 31.804688 -22.207031 30.578125 -23.1875 C 29.359375 -24.164062 27.992188 -24.941406 26.484375 -25.515625 C 24.984375 -26.097656 23.546875 -26.53125 22.171875 -26.8125 C 20.804688 -27.101562 19.597656 -27.285156 18.546875 -27.359375 C 17.492188 -27.429688 16.773438 -27.46875 16.390625 -27.46875 L 8.921875 -27.46875 L 8.921875 -0.640625 L 16.109375 -0.640625 C 19.597656 -0.691406 22.710938 -1.171875 25.453125 -2.078125 C 26.597656 -2.460938 27.734375 -2.976562 28.859375 -3.625 C 29.984375 -4.269531 30.988281 -5.0625 31.875 -6 C 32.769531 -6.9375 33.488281 -8.0625 34.03125 -9.375 C 34.582031 -10.695312 34.859375 -12.222656 34.859375 -13.953125 Z M 16.109375 -28.109375 L 16.109375 -28.03125 C 17.679688 -28.03125 19.316406 -28.195312 21.015625 -28.53125 C 22.722656 -28.875 24.285156 -29.472656 25.703125 -30.328125 C 27.117188 -31.191406 28.289062 -32.351562 29.21875 -33.8125 C 30.15625 -35.28125 30.625 -37.117188 30.625 -39.328125 C 30.625 -41.523438 30.15625 -43.351562 29.21875 -44.8125 C 28.289062 -46.28125 27.117188 -47.445312 25.703125 -48.3125 C 24.285156 -49.175781 22.722656 -49.785156 21.015625 -50.140625 C 19.316406 -50.503906 17.679688 -50.6875 16.109375 -50.6875 C 15.003906 -50.6875 13.835938 -50.632812 12.609375 -50.53125 C 11.390625 -50.4375 10.160156 -50.34375 8.921875 -50.25 L 8.921875 -28.109375 Z M 16.109375 -28.109375 "/></g></g></g><g fill="#004aad" fill-opacity="1"><g transform="translate(28.138243, 107.265122)"><g><path d="M 12.09375 3.078125 C 11.394531 3.585938 11.046875 4.160156 11.046875 4.796875 C 11.046875 5.441406 11.171875 6.019531 11.421875 6.53125 C 12.253906 8.257812 13.28125 9.8125 14.5 11.1875 C 15.71875 12.5625 17 13.457031 18.34375 13.875 C 19.6875 14.289062 21 14.035156 22.28125 13.109375 C 23.5625 12.179688 24.742188 10.242188 25.828125 7.296875 L 28.515625 0 L 28.234375 0 L 10.171875 -41.671875 C 9.597656 -42.953125 9.054688 -43.894531 8.546875 -44.5 C 8.035156 -45.113281 7.363281 -45.421875 6.53125 -45.421875 L 6.53125 -46.28125 L 18.71875 -46.28125 L 18.71875 -45.421875 C 16.925781 -45.421875 16.546875 -44.269531 17.578125 -41.96875 L 31.875 -8.828125 L 43.890625 -40.71875 C 44.273438 -41.800781 44.382812 -42.644531 44.21875 -43.25 C 44.0625 -43.863281 43.820312 -44.332031 43.5 -44.65625 C 43.113281 -45.039062 42.601562 -45.296875 41.96875 -45.421875 L 41.96875 -46.28125 L 50.125 -46.28125 L 50.125 -45.421875 C 49.039062 -45.421875 47.96875 -44.972656 46.90625 -44.078125 C 45.851562 -43.179688 45.070312 -42 44.5625 -40.53125 L 26.5 7.484375 C 25.21875 11.078125 23.695312 13.800781 21.9375 15.65625 C 20.175781 17.507812 18.269531 18.53125 16.21875 18.71875 C 14.175781 18.914062 12.019531 18.289062 9.75 16.84375 C 7.476562 15.40625 5.222656 13.21875 2.984375 10.28125 L 2.40625 9.609375 L 11.53125 2.40625 Z M 12.09375 3.078125 "/></g></g></g></svg>